<!-- Copyright 2000-2023 JetBrains s.r.o. and contributors. Use of this source code is governed by the Apache 2.0 license. -->
<!--<svg width="12" height="12" viewBox="0 0 12 12" fill="none" xmlns="http://www.w3.org/2000/svg">-->
<!--    <path-->
<!--        d="M3.32162 2.54657C3.74755 2.55124 4.14217 2.32341 4.35109 1.9522L5.09534 0.629884C5.12166 0.583113 5.15824 0.564157 5.18389 0.560336C5.45049 0.52062 5.72359 0.5 6.00183 0.5C6.28002 0.5 6.55308 0.520613 6.81964 0.560318C6.84529 0.564139 6.88187 0.583095 6.90819 0.629866L7.65245 1.9522C7.86138 2.3234 8.256 2.55124 8.68193 2.54657L10.1985 2.52996C10.252 2.52937 10.2868 2.55148 10.303 2.57186C10.6425 2.99718 10.92 3.47369 11.1222 3.98773C11.1317 4.01176 11.1335 4.05283 11.1062 4.09897L10.3326 5.40563C10.1156 5.77217 10.1156 6.22784 10.3326 6.59437L11.1062 7.90104C11.1335 7.94718 11.1317 7.98825 11.1222 8.01227C10.92 8.52631 10.6425 9.00282 10.303 9.42814C10.2868 9.44853 10.252 9.47063 10.1985 9.47004L8.68193 9.45343C8.256 9.44876 7.86138 9.6766 7.65245 10.0478L6.9082 11.3701C6.88187 11.4169 6.84529 11.4359 6.81964 11.4397C6.55308 11.4794 6.28002 11.5 6.00183 11.5C5.72359 11.5 5.45049 11.4794 5.18389 11.4397C5.15824 11.4358 5.12166 11.4169 5.09534 11.3701L4.35109 10.0478C4.14217 9.6766 3.74755 9.44876 3.32162 9.45343L1.80519 9.47004C1.75167 9.47063 1.71689 9.44852 1.70062 9.42814C1.36113 9.00279 1.08358 8.52625 0.881387 8.01216C0.871939 7.98814 0.870071 7.94707 0.897388 7.90093L1.67094 6.59437C1.88794 6.22784 1.88794 5.77217 1.67094 5.40563L0.897387 4.09907C0.870071 4.05293 0.871938 4.01187 0.881386 3.98784C1.08358 3.47376 1.36112 2.99721 1.70062 2.57186C1.71689 2.55148 1.75167 2.52937 1.80519 2.52996L3.32162 2.54657Z"-->
<!--        stroke="#818594"/>-->
<!--    <circle cx="6" cy="6" r="1.5" stroke="#818594"/>-->
<!--</svg>-->

<svg viewBox="0 0 1024 1024" version="1.1" xmlns="http://www.w3.org/2000/svg" width="200" height="200">
    <path
        d="M448.487619 97.52381l130.096762 0.170666c40.399238 0.073143 73.142857 32.792381 73.191619 73.216l0.048762 21.211429a345.283048 345.283048 0 0 1 71.143619 39.960381l17.408-10.044953a73.313524 73.313524 0 0 1 99.961905 26.819048l65.219047 112.566857a73.313524 73.313524 0 0 1-22.893714 97.816381l-3.974095 2.438095-17.481143 10.093715a341.479619 341.479619 0 0 1-1.292191 83.968l12.361143 7.168a73.313524 73.313524 0 0 1 28.867048 96.329142l-2.023619 3.803429-61.098667 105.813333a73.313524 73.313524 0 0 1-96.329143 28.867048l-3.803428-2.048-16.896-9.752381a341.918476 341.918476 0 0 1-68.291048 38.083048l0.024381 29.062095a73.313524 73.313524 0 0 1-68.754286 73.264762l-4.632381 0.146285-130.121142-0.170666a73.313524 73.313524 0 0 1-73.191619-73.216l-0.048762-35.035429a346.599619 346.599619 0 0 1-57.368381-34.035809l-31.158857 17.944381a73.313524 73.313524 0 0 1-99.986286-26.819048l-65.219048-112.566857a73.313524 73.313524 0 0 1 22.918095-97.816381l3.949715-2.438095 31.719619-18.285715c-2.438095-23.161905-2.56-46.665143-0.219429-70.119619l-35.206095-20.333714a73.313524 73.313524 0 0 1-28.891429-96.329143l2.048-3.803428 61.098667-105.813334a73.313524 73.313524 0 0 1 96.329143-28.867047l3.803429 2.048 30.72 17.724952a341.284571 341.284571 0 0 1 64.609523-39.716571l-0.048762-27.89181a73.313524 73.313524 0 0 1 68.754286-73.264762L448.487619 97.52381z m-0.097524 73.313523l0.073143 74.48381-42.130286 19.846095c-18.041905 8.46019-35.05981 18.919619-50.761142 31.158857l-38.936381 30.403048-71.655619-41.398857-1.852953-1.024-61.074286 105.813333 76.239239 44.007619-4.729905 47.104a268.434286 268.434286 0 0 0 0.170666 55.100952l5.022477 47.445334-73.069715 42.081524 65.194667 112.566857 72.557714-41.740191 38.473143 28.184381a272.579048 272.579048 0 0 0 45.226667 26.819048l42.057143 19.772952 0.146285 81.529905 130.072381 0.170667-0.073143-78.019048 45.202286-18.822095a268.629333 268.629333 0 0 0 53.638095-29.915429l38.448762-27.648 57.904762 33.426286 61.049905-105.813333-55.100952-31.890286 6.826666-48.88381a268.190476 268.190476 0 0 0 1.024-65.950476l-5.12-47.494095 58.928762-34.011429-65.219047-112.566857L718.262857 319.390476l-38.497524-28.086857a272.62781 272.62781 0 0 0-56.051809-31.50019l-45.104762-18.724572-0.121905-70.070857-130.096762-0.170667z m145.895619 210.407619a146.773333 146.773333 0 0 1 53.686857 200.362667 146.407619 146.407619 0 0 1-200.167619 53.638095 146.773333 146.773333 0 0 1-53.662476-200.362666 146.407619 146.407619 0 0 1 200.167619-53.638096z m-136.655238 90.258286a73.48419 73.48419 0 0 0 26.86781 100.278857 73.118476 73.118476 0 0 0 99.961904-26.770285c19.529143-33.865143 9.020952-76.824381-23.186285-98.03581l-3.657143-2.267429-3.803429-2.048a73.118476 73.118476 0 0 0-96.182857 28.842667z"/>
</svg>